# Blender 3.4.0
# www.blender.org
mtllib BlockBoxNoRotation.mtl
o Cube
v -2.500000 0.500000 1.500000
v -2.500000 -0.500000 1.500000
v -2.500000 0.500000 -1.500000
v -2.500000 -0.500000 -1.500000
v 2.500000 0.500000 1.500000
v 2.500000 -0.500000 1.500000
v 2.500000 0.500000 -1.500000
v 2.500000 -0.500000 -1.500000
v -2.375095 0.500000 1.429729
v -2.375095 0.500000 -1.429729
v 2.390668 0.500000 1.429729
v 2.390668 0.500000 -1.429729
v -2.375095 0.031389 1.429729
v -2.375095 0.031389 -1.429729
v 2.390668 0.031389 1.429729
v 2.390668 0.031389 -1.429729
vn -0.0000 1.0000 -0.0000
vn -0.0000 -0.0000 -1.0000
vn 1.0000 -0.0000 -0.0000
vn -0.0000 -1.0000 -0.0000
vn -1.0000 -0.0000 -0.0000
vn -0.0000 -0.0000 1.0000
vt 0.625000 0.500000
vt 0.375000 0.500000
vt 0.625000 0.750000
vt 0.375000 0.750000
vt 0.625000 0.250000
vt 0.125000 0.500000
vt 0.375000 0.250000
vt 0.625000 1.000000
vt 0.625000 0.000000
vt 0.375000 1.000000
vt 0.375000 0.000000
vt 0.125000 0.750000
vt 0.625000 0.500000
vt 0.625000 0.750000
vt 0.625000 0.250000
vt 0.625000 0.000000
vt 0.625000 1.000000
vt 0.625000 0.500000
vt 0.625000 0.750000
vt 0.875000 0.500000
vt 0.625000 0.250000
vt 0.875000 0.750000
vt 0.625000 0.000000
vt 0.625000 1.000000
s 0
usemtl Material
f 7/8/1 3/3/1 10/14/1 12/17/1
f 4/4/2 3/3/2 7/8/2 8/10/2
f 8/11/3 7/9/3 5/5/3 6/7/3
f 6/6/4 2/2/4 4/4/4 8/12/4
f 2/2/5 1/1/5 3/3/5 4/4/5
f 6/7/6 5/5/6 1/1/6 2/2/6
f 9/13/2 11/15/2 15/21/2 13/18/2
f 5/5/1 7/9/1 12/16/1 11/15/1
f 3/3/1 1/1/1 9/13/1 10/14/1
f 1/1/1 5/5/1 11/15/1 9/13/1
f 13/18/1 15/20/1 16/22/1 14/19/1
f 10/14/3 9/13/3 13/18/3 14/19/3
f 11/15/5 12/16/5 16/23/5 15/21/5
f 12/17/6 10/14/6 14/19/6 16/24/6
